<?xml version="1.0" ?>
<!DOCTYPE svg  PUBLIC '-//W3C//DTD SVG 1.1//EN'  'http://www.w3.org/Graphics/SVG/1.1/DTD/svg11.dtd'>
<!-- Uploaded to: SVG Repo, www.svgrepo.com, Generator: SVG Repo Mixer Tools -->
<svg fill="#000000" width="800px" height="800px" viewBox="0 0 32 32" style="fill-rule:evenodd;clip-rule:evenodd;stroke-linejoin:round;stroke-miterlimit:2;" version="1.1" xml:space="preserve" xmlns="http://www.w3.org/2000/svg" xmlns:serif="http://www.serif.com/" xmlns:xlink="http://www.w3.org/1999/xlink">
<g transform="matrix(1,0,0,1,-192,-337)">
<g transform="matrix(1.6,0,0,1.6,-134.4,-210.8)">
<path d="M213.406,344.204C213.489,343.947 213.729,343.773 214,343.773C214.271,343.773 214.511,343.947 214.594,344.204C215.107,345.781 215.809,347.943 216.105,348.853C216.188,349.11 216.428,349.285 216.699,349.285C217.656,349.285 219.929,349.285 221.587,349.285C221.858,349.285 222.098,349.459 222.181,349.717C222.265,349.974 222.173,350.256 221.954,350.415C220.613,351.39 218.774,352.726 218,353.288C217.781,353.448 217.689,353.73 217.773,353.987C218.069,354.898 218.771,357.059 219.283,358.636C219.367,358.893 219.275,359.175 219.056,359.335C218.837,359.494 218.541,359.494 218.322,359.335C216.98,358.36 215.142,357.024 214.367,356.462C214.148,356.302 213.852,356.302 213.633,356.462C212.858,357.024 211.02,358.36 209.678,359.335C209.459,359.494 209.163,359.494 208.944,359.335C208.725,359.175 208.633,358.893 208.717,358.636C209.229,357.059 209.931,354.898 210.227,353.987C210.311,353.73 210.219,353.448 210,353.288C209.226,352.726 207.387,351.39 206.046,350.415C205.827,350.256 205.735,349.974 205.819,349.717C205.902,349.459 206.142,349.285 206.413,349.285C208.071,349.285 210.344,349.285 211.301,349.285C211.572,349.285 211.812,349.11 211.895,348.853C212.191,347.943 212.893,345.781 213.406,344.204Z" style="fill:rgb(144,224,239);"/>
</g>
<g transform="matrix(1.6,0,0,1.6,-134.4,-210.8)">
<path d="M211.301,348.66L206.413,348.66C205.871,348.66 205.392,349.009 205.224,349.524C205.057,350.039 205.24,350.603 205.678,350.921L209.633,353.794L208.122,358.443C207.955,358.958 208.138,359.522 208.576,359.84C209.014,360.158 209.608,360.158 210.046,359.84L214,356.967L217.954,359.84C218.392,360.158 218.986,360.158 219.424,359.84C219.862,359.522 220.045,358.958 219.878,358.443L218.367,353.794L222.322,350.921C222.76,350.603 222.943,350.039 222.776,349.524C222.608,349.009 222.129,348.66 221.587,348.66L216.699,348.66L215.189,344.011C215.021,343.496 214.542,343.148 214,343.148C213.458,343.148 212.979,343.496 212.811,344.011L211.301,348.66ZM214,344.398C214,344.398 215.51,349.046 215.51,349.046C215.678,349.561 216.158,349.91 216.699,349.91L221.587,349.91C221.587,349.91 217.633,352.783 217.633,352.783C217.195,353.101 217.011,353.665 217.179,354.18L218.689,358.829C218.689,358.829 214.735,355.956 214.735,355.956C214.297,355.638 213.703,355.638 213.265,355.956L209.311,358.829C209.311,358.829 210.821,354.18 210.821,354.18C210.989,353.665 210.805,353.101 210.367,352.783L206.413,349.91C206.413,349.91 211.301,349.91 211.301,349.91C211.842,349.91 212.322,349.561 212.49,349.046L214,344.398Z" style="fill:rgb(25,144,167);"/>
</g>
</g>
</svg>